<svg xmlns="http://www.w3.org/2000/svg" width="512" height="512"><path d="M340.857 164.286c2.095-1.333 4.476-3.428 7.143-6.286v.286c0 .381-.904 1.333-2.714 2.857-1.81 1.523-2.905 2.667-3.286 3.428-.19-.19-.571-.285-1.143-.285zm-1.714.285c-.19-.19-.429-.476-.714-.857-.286-.381-.429-.667-.429-.857.571.381 1.523.857 2.857 1.429-1.143.762-1.714.857-1.714.285zm-131.143-52.285c-3.048-.381-5.524-.857-7.429-1.429.19 0 .81.095 1.857.286 1.047.191 2.047.381 3 .572.953.19 1.81.38 2.572.571zm12.857-10.572c1.333-.762 2.619-1 3.857-.714 1.238.286 1.952 1 2.143 2.143-.952-.572-2.952-1.048-6-1.429zm-2.286 1.715l-.857-.571c-.381-.572-.905-1.048-1.571-1.429-.667-.381-1.095-.572-1.286-.571.381.19 2.381.476 6 .857-1.143.761-1.905 1.333-2.286 1.714zm-29.142-24v-.571c.19.381.476.904.857 1.571.381.667.667 1.19.857 1.571l-1.714-2.571zm-30 11.428c0 .381-.095.572-.286.572l-.286-.572h.572zm107.142 298.286v0zm-47.142-343.429c39.81 0 76.523 9.81 110.143 29.429 33.618 19.619 60.238 46.238 79.857 79.857s29.429 70.333 29.429 110.143-9.81 76.523-29.429 110.143-46.238 60.238-79.857 79.857-70.333 29.429-110.143 29.429-76.524-9.81-110.143-29.429-60.238-46.238-79.857-79.857-29.429-70.334-29.429-110.143c0-39.81 9.81-76.524 29.429-110.143s46.238-60.238 79.857-79.857 70.333-29.429 110.143-29.429zm134.857 356.001l1.428-1.43c-1.333-1.904-4.095-3.047-8.285-3.428.19-2.286-1.143-4.81-4-7.572-2.857-2.762-5.429-4.237-7.715-4.428 0-.762-1-1.81-3-3.143-2-1.334-3.666-2.096-5-2.286-1.714-.38-4.285.476-7.714 2.572-1.333.571-1.714 1.048-1.143 1.429-.571-.571-1.715-1.619-3.429-3.144-1.715-1.523-3.238-2.57-4.571-3.143-.381-.189-1.096-.285-2.144-.285-1.047 0-1.856-.19-2.428-.572-.19-.189-.763-.618-1.715-1.285-.952-.666-1.619-1.096-2-1.285-.381-.191-1-.477-1.857-.857-.856-.381-1.571-.523-2.143-.429s-1.286.333-2.143.714c-.857.381-1.667.953-2.429 1.715s-1.19 2.238-1.285 4.428c-.096 2.191-.334 3.572-.715 4.144-1.523-1.144-1.571-3.048-.143-5.714 1.428-2.667 1.571-4.572.428-5.715-1.333-1.333-3.333-1.381-6-.143-2.666 1.238-4.666 2.714-6 4.428-.189.191-1.095.715-2.714 1.572s-2.714 1.571-3.286 2.143c-.762 1.143-1.619 2.81-2.57 5-.953 2.19-1.524 3.477-1.715 3.857 0-.381-.238-1-.715-1.857-.476-.857-.714-1.477-.714-1.857-2.286.381-3.81.096-4.571-.857.952 3.049 1.715 4.668 2.285 4.857l-1.143-.571c-.19 1.144.096 2.571.857 4.286.762 1.714 1.143 2.762 1.143 3.143.19.952.048 2.19-.428 3.715-.477 1.523-.715 2.57-.715 3.143 0 .381.477 1.428 1.429 3.143.762 3.619.571 6.666-.571 9.143 0 .191-.334.857-1 2-.667 1.143-1.286 2.191-1.857 3.143l-.571 1.429-.571-.285c-.191-.19-.381-.19-.572 0-.189 1.143-1.047 2.381-2.57 3.714-1.524 1.334-2.477 2.381-2.857 3.144-2.857 4.381-3.715 8-2.572 10.856.571 1.524 1.524 2.477 2.857 2.857.572.19.857 0 .857-.571.19 1.714-.857 4.285-3.143 7.714.19.19.571.477 1.143.857-3.238 0-4.19 1.333-2.857 4 38.477-6.857 72-24.096 100.571-51.715h-.856l1.429-.574zm-160-52.858c3.048-.572 5.953.952 8.714 4.571s4.905 5.81 6.429 6.571c7.81 3.81 13.428 4.857 16.857 3.143 0 1.715 1.333 4.381 4 8 .571.762 1.19 1.857 1.857 3.286s1.19 2.429 1.571 3c.952 1.333 2.762 2.856 5.429 4.571 2.667 1.715 4.476 3.238 5.428 4.571 1.143-.571 2-1.429 2.572-2.571 2.476 6.666 4.762 9.904 6.857 9.715.952 0 1.714-.762 2.286-2.286 0 .19-.047.476-.143.856-.095.382-.238.668-.429.857 1.333-2.857 1.809-5.333 1.428-7.428l1.715-1.144c.952-.762 1.428-1.237 1.428-1.429-1.143-1.143-2-.857-2.57.857-5.715 2.667-10.286.571-13.715-6.285-.381-.572-.81-1.334-1.286-2.286s-.953-2.095-1.429-3.429c-.476-1.333-.619-2.429-.429-3.285.191-.857.762-1.286 1.714-1.286 2.095 0 3.286-.144 3.572-.429.286-.285.047-.857-.714-1.715-.762-.856-1.143-1.57-1.143-2.143-.19-.762-.333-1.952-.429-3.57-.095-1.619-.238-2.811-.428-3.572l-1.428-1.712c-.952-1.143-2.048-2.428-3.286-3.856-1.238-1.429-1.953-2.333-2.143-2.714-.762 1.904-2.333 2.714-4.714 2.428-2.381-.285-4.143-1.189-5.286-2.714.19.381.143 1-.143 1.856-.286.857-.429 1.477-.429 1.857-2.667 0-4.286-.095-4.857-.285.19-1.143.476-3.143.857-6s.762-4.953 1.143-6.286c.19-.952.714-2.237 1.571-3.856.857-1.619 1.619-3.096 2.286-4.43.667-1.332 1.095-2.666 1.286-4 .19-1.332-.238-2.332-1.286-3-1.048-.666-2.81-.904-5.286-.714-3.81.19-6.571 2.286-8.286 6.286-.19.571-.477 1.666-.857 3.285s-.857 2.811-1.428 3.572c-.572.762-1.429 1.428-2.572 2-1.523.57-4.095.762-7.714.57-3.619-.189-6.095-.666-7.428-1.428-2.667-1.523-4.953-4.429-6.857-8.715-1.905-4.285-2.952-8.238-3.143-11.857 0-1.904.286-4.523.857-7.856s.857-5.905.857-7.714c0-1.811-.572-4.334-1.714-7.572.571-.381 1.523-1.381 2.857-3s2.381-2.714 3.143-3.285c.381-.381.857-.572 1.428-.572h1.429l1.143-.57c.762-.381 1.047-.953.857-1.715-.19-.19-.571-.477-1.143-.857-.572-.571-.953-.857-1.143-.857.762.572 2.571.667 5.429.286 2.857-.381 4.667-.571 5.428-.571 0-.19 2.095-.19 6.286 0 3.238 2.477 5.523 2.285 6.857-.571 0-.19-.238-1.19-.714-3s-.524-3.19-.143-4.144c.952 5.524 4 6.477 9.143 2.857.572.762 2.143 1.334 4.714 1.715s4.333.857 5.286 1.428c.572.382 1.238.905 2 1.572.762.666 1.333 1.143 1.714 1.428.381.286.953.334 1.714.144s1.619-.857 2.571-2c2.095 3.237 3.333 5.619 3.714 7.143 2.095 8.19 4 12.763 5.714 13.714 1.524.382 2.714.572 3.571.572.857 0 1.333-1 1.429-3 .095-2 .095-3.477 0-4.429-.096-.952-.239-2.19-.429-3.714l-.571-10.572c-3.048-.571-4.953-1.762-5.714-3.571s-.619-3.714.429-5.714c1.047-2 2.619-3.857 4.714-5.572.19-.189 1.761-.951 4.714-2.285 2.952-1.334 5-2.477 6.143-3.429 4.571-3.619 6.19-7.333 4.857-11.143 1.714.381 2.762-.477 3.143-2.571l-1.427-.859c-.762-.571-1.523-1.095-2.286-1.571-.762-.477-1.237-.619-1.428-.429 2.096-1.333 2.285-3.048.571-5.143.952-.572 1.714-1.667 2.286-3.286.57-1.619 1.428-2.714 2.57-3.286 1.715 2.667 3.811 2.953 6.286.857 1.524-1.714 1.714-3.429.571-5.143.953-1.524 3.048-2.619 6.286-3.286s5.143-1.571 5.714-2.714c.953.19 1.619.19 2 0s.572-.619.572-1.286v-2.143l.285-2.428c.19-1.619.477-2.333.857-2.143.762-1.143 2.285-2.143 4.571-3 2.286-.857 3.619-1.381 4-1.571l5.429-3.429c.762-.762.762-1.143 0-1.143 3.429.381 6.476-.667 9.143-3.143 2.477-2.286 2-4.476-1.429-6.571.381-1.333 0-2.333-1.143-3-1.143-.667-2.667-1.191-4.571-1.572.571-.19 1.714-.238 3.429-.143 1.714.095 2.856-.048 3.429-.429 2.856-2.095 2.19-3.714-2-4.857-3.81-.953-8.286.286-13.429 3.714-.571.381-1.81 1.523-3.715 3.428-1.904 1.905-3.523 2.953-4.856 3.143 2.856-3.429 3.333-5.524 1.428-6.286 1.524.19 3.667-.667 6.429-2.572s4.238-2.952 4.429-3.143c.762-.381 1.762-.619 3-.714s2.048-.238 2.429-.429c13.523-4.762 22.285-4.667 26.285.286 1.524-2.095 2.572-3.523 3.144-4.286.571-.762 1.476-1.619 2.714-2.571 1.238-.953 2.715-1.714 4.429-2.286 4-1.333 6.19-2.19 6.571-2.571l.286-6.572c-2.286.19-4-.571-5.144-2.286-1.143-1.714-1.81-3.81-2-6.286l-1.713 2.29c0-1.143-.333-1.857-1-2.143-.667-.286-1.381-.333-2.143-.143s-1.667.381-2.715.571c-1.047.19-1.762.19-2.143 0-1.714-.381-3.571-1.857-5.571-4.428-2-2.572-3.381-4.143-4.143-4.714 1.714 0 2.571-.477 2.571-1.429-.381-.953-1.334-1.714-2.857-2.286.19-1.143 0-1.905-.571-2.286s-1.429-.381-2.571 0c-.381-2.286-.477-3.524-.286-3.714-1.143-.19-2.19-1.238-3.143-3.143s-1.715-2.857-2.286-2.857c-.381 0-.81.19-1.285.571-.477.381-.953.905-1.429 1.571l-1.429 2-1 1.572-.571.571c-2.286-1.143-4.571-.19-6.857 2.857-1.714-.19-3.333 0-4.857.572 2.857-1.143 3.048-2.381.572-3.714-2.096-.953-4.096-1.143-6-.571 2.285-.953 3.237-2.286 2.856-4-.381-1.714-1.523-3.238-3.429-4.572.19 0 .572.095 1.144.286s.952.286 1.143.286c-.19-.953-1.096-1.857-2.715-2.714-1.619-.857-3.476-1.714-5.57-2.572-2.096-.857-3.43-1.476-4-1.857-1.334-.953-4.763-1.953-10.286-3-5.524-1.048-8.952-1.19-10.286-.429-.952.572-1.523 1.143-1.714 1.714s-.048 1.381.429 2.429c.477 1.047.809 1.857 1 2.429 1.143 4.381 1.619 6.952 1.428 7.714-.189.572-1 1.333-2.428 2.286-1.429.952-1.953 2.095-1.572 3.428.191.762 1.286 1.714 3.286 2.857 2 1.143 3.19 2.286 3.571 3.428.953 2.477.572 4.857-1.143 7.143-.762.953-2.19 2-4.285 3.143-2.096 1.143-3.43 2.095-4 2.857-.953.953-1.286 2.047-1 3.286.285 1.238.333 2.143.143 2.714.19-.19.285-.429.285-.714s.096-.524.286-.714c0 2.476 1.048 4.572 3.143 6.286 1.524 1.143 0 2.857-4.571 5.143-3.81 2.095-5.714 2.476-5.714 1.143.19-1.524-.524-3.048-2.143-4.572-1.619-1.524-2.619-2.667-3-3.428-.381-.762-.714-2.572-1-5.429-.286-2.857-1.19-4.857-2.714-6-1.143-.762-2.953-1.143-5.429-1.143s-4.19.476-5.143 1.429c0-1.905-4.667-4.762-14-8.571-3.238-1.524-8.762-1.905-16.571-1.143 1.333-.19 1.333-1.81 0-4.857-1.524-3.048-3.524-4.19-6-3.429-1.524-4.762-1.905-8.095-1.143-10 .381-.953 1.238-2.286 2.571-4s2.19-3.143 2.571-4.286c.19-.571 1.667-1.143 4.429-1.714 2.762-.571 4.333-1.333 4.714-2.286.19-.762-.048-1.381-.714-1.857-.667-.476-1.571-.904-2.714-1.286 10.095 1.143 16.095-.571 18-5.143.952-1.714 1.238-3.048.857-4 0 .19.191.286.572.286s.571.095.571.286c2.286-.571 2.952-2.19 2-4.857 3.619-1.524 6.095-2.286 7.429-2.286.952.19 2 .762 3.143 1.714 1.143.953 2.095 1.429 2.857 1.429 3.238.571 5.286-.381 6.143-2.857.857-2.477-.047-4.667-2.714-6.572 1.333.762 2 .19 2-1.714-.19-2.476-.857-4.286-2-5.428-.571-.381-1.19-.619-1.857-.714s-1.286-.095-1.857 0c-.572.095-1.238.047-2-.143-.191 0-.953-.19-2.286-.571-.19.19-.381.286-.571.286h-2.288c-.762.381-1.143.857-1.143 1.429v.286c-.19.571.191 1.143 1.143 1.714l1.429.286.857.571c-.19 0-.429.238-.714.714s-.523.714-.714.714c0 .571.286 1.047.857 1.429-.381.19-1.714.905-4 2.143-2.286 1.238-3.905 2.238-4.857 3-.19.19-.571.429-1.143.714s-.953.524-1.143.714c-.381.19-.762 0-1.143-.571-.381-.572-.762-1.429-1.143-2.572s-.762-2.238-1.143-3.286c-.381-1.047-.81-2-1.286-2.857-.476-.857-1-1.286-1.571-1.286-2.286 0-4 1.619-5.143 4.857.571-1.905-.667-3.571-3.714-5-3.048-1.429-5.429-2.143-7.143-2.143 3.81-2.857 2.953-5.714-2.571-8.572l-.286-.285c-5.714.762-10 1.429-12.857 2-.381 1.143-.095 2.286.857 3.429-.19 1.333.381 2.19 1.714 2.571 0 .19.047.286.143.286s.143.095.143.286c0-.19-.048-.286-.143-.286s-.143-.095-.143-.286c.571.19 1.571.333 3 .429 1.428.095 2.333.238 2.714.429.572.19 1 .381 1.286.571l2.143 1.429 1.571 1.714c1.048 1.143.81 1.619-.714 1.429-.381.19-1.238.571-2.572 1.143-1.333.571-2.523 1.095-3.571 1.571-1.047.476-1.667.81-1.857 1-.572.953-.572 2.476 0 4.571.571 2.095.381 3.524-.572 4.286-.952-.952-1.905-2.714-2.857-5.286-.953-2.571-1.714-4.238-2.286-5 1.523 1.714-1.333 2.286-8.572 1.714l-2.286-.286c-.762 0-2.19.19-4.286.571-2.095.381-3.619.477-4.571.286-1.333 0-4.095-.571-8.286-1.714 1.333-3.238 1.81-5.619 1.428-7.143.953 0 1.619-.19 2-.571l-1.714-.857c-.572.191-2.953 1.048-7.143 2.572.381.571 1.143 1.476 2.286 2.714s2 2.333 2.571 3.286c-4.19-1.143-6.762-.953-7.714.571 0 .19-.857.19-2.572 0-4.762-.19-7.047.476-6.857 2 .19.762 1.047 1.905 2.571 3.429 0 1.714-.095 2.571-.286 2.571-5.143-4.19-8-6.381-8.571-6.571-32.762 15.81-59.048 39.428-78.857 70.857.19.381.429 1.429.714 3.143.286 1.714.619 2.523 1 2.428s1.429-.523 3.143-1.286c1.714 1.714 2 3.714.857 6 .381-.381 3.81 1.619 10.286 6 10.667 7.619 12.762 12.667 6.286 15.143v-1.572l.286-1.857c-1.714.19-3.524-.286-5.429-1.429-.571 1.143-.524 3.048.143 5.714.667 2.667 1.762 4 3.286 4-1.524 0-2.524 1.619-3 4.857-.477 3.238-.714 6.904-.714 11 0 4.095-.095 6.523-.286 7.286l.571.286c-.571 2.476 0 6.047 1.714 10.714 1.714 4.667 4 6.619 6.857 5.857-.762 3.429-.286 5.429 1.429 6-.19.762-.19 1.524 0 2.286s.619 1.572 1.286 2.429 1.238 1.524 1.714 2l2.143 2.143 1.714 1.714c5.333 2.096 9.238 4.857 11.714 8.286.762 1.143 1.762 3.477 3 7s2.714 5.952 4.429 7.285c-.381 1.143.571 3.191 2.857 6.143 2.286 2.953 3.333 5.382 3.143 7.286-.19 0-.429.048-.714.144-.286.095-.524.143-.714.143.571 1.523 2.143 3.047 4.714 4.571s4.143 2.856 4.714 4c.381.571.619 1.571.714 3s.381 2.571.857 3.429 1.286 1.096 2.429.714c.571-4.571-1.905-11.048-7.429-19.429-3.047-5.143-4.762-8.095-5.143-8.857-.572-.951-1.095-2.523-1.572-4.714-.476-2.19-.905-3.667-1.286-4.429 5.143 1.715 7.619 2.953 7.429 3.715-.953 1.904 1.524 6.857 7.429 14.857.381.57 1.333 1.523 2.857 2.856s2.571 2.477 3.143 3.429c.571.762 1.476 2.143 2.714 4.143s2.238 3.477 3 4.429c-.19 0-.476.19-.857.571l-.854.857c.762.381 1.619.857 2.571 1.429.952.571 1.714 1 2.286 1.286.571.285 1.286.762 2.143 1.428.857.667 1.571 1.381 2.143 2.143 3.048 3.43 4.953 6.572 5.714 9.43.19.762.238 2.238.143 4.428-.095 2.191.047 3.762.428 4.715.381 1.143.953 2.19 1.714 3.143.762.952 1.857 1.904 3.286 2.857 1.429.952 2.524 1.619 3.286 2s2.143 1 4.143 1.857c2 .856 3.095 1.381 3.286 1.57.381.191 2.095 1.238 5.143 3.144 3.047 1.905 5.428 3.237 7.143 4 1.905.762 3.477 1.19 4.714 1.286 1.238.095 2.762-.144 4.571-.715 1.81-.572 3.286-.953 4.429-1.144z"/></svg>